<svg width="99" height="257" viewBox="0 0 99 257" fill="none" xmlns="http://www.w3.org/2000/svg">
<path d="M87.8608 5.6582C87.8608 8.60372 90.2486 10.9915 93.1941 10.9915C96.1396 10.9915 98.5274 8.60372 98.5274 5.6582C98.5274 2.71268 96.1396 0.32487 93.1941 0.32487C90.2486 0.32487 87.8608 2.71268 87.8608 5.6582ZM7.98214 122.771L6.98414 122.835L7.98214 122.771ZM7.98214 218.634L6.98214 218.634L7.98214 218.634ZM7.27503 256.175C7.66555 256.566 8.29872 256.566 8.68924 256.175L15.0532 249.811C15.4437 249.421 15.4437 248.788 15.0532 248.397C14.6627 248.007 14.0295 248.007 13.639 248.397L7.98214 254.054L2.3253 248.397C1.93478 248.007 1.30161 248.007 0.911088 248.397C0.520563 248.788 0.520561 249.421 0.911085 249.811L7.27503 256.175ZM92.6409 4.82514C77.7646 14.7036 55.6508 32.424 37.6118 53.5182C19.6069 74.5724 5.48544 99.1924 6.98414 122.835L8.98013 122.708C7.53323 99.8829 21.2021 75.7844 39.1318 54.818C57.0273 33.8916 78.9923 16.2891 93.7473 6.49126L92.6409 4.82514ZM6.98414 122.835C8.85748 152.387 28.6983 168.162 47.4494 172.912C56.8021 175.281 65.9801 174.934 72.5811 172.101C75.8898 170.682 78.5935 168.617 80.3089 165.912C82.0337 163.192 82.711 159.899 82.0821 156.135L80.1095 156.465C80.6641 159.784 80.0593 162.571 78.6199 164.841C77.1711 167.125 74.8285 168.961 71.7924 170.263C65.7037 172.876 56.9977 173.267 47.9405 170.973C29.8718 166.396 10.7888 151.24 8.98013 122.708L6.98414 122.835ZM82.0821 156.135C81.4528 152.368 79.7427 149.567 77.1722 147.75C74.6224 145.949 71.3304 145.189 67.6493 145.283C60.3069 145.47 51.1274 149.053 42.1965 155.208C24.3216 167.526 6.98241 190.469 6.98214 218.634L8.98214 218.634C8.9824 191.305 25.833 168.913 43.3314 156.855C52.0871 150.821 60.89 147.455 67.7002 147.282C71.0953 147.195 73.9221 147.903 76.0179 149.384C78.093 150.85 79.5553 153.148 80.1095 156.465L82.0821 156.135ZM6.98214 218.634C6.9817 264.44 6.98218 240.357 6.98214 255.468H8.98214C8.98218 240.356 8.9817 264.441 8.98214 218.634L6.98214 218.634Z" fill="#F74B23"/>
</svg>
