<?xml version="1.0" encoding="UTF-8"?> <svg xmlns="http://www.w3.org/2000/svg" width="41" height="40" viewBox="0 0 41 40" fill="none"><path fill-rule="evenodd" clip-rule="evenodd" d="M20.5 40C31.5457 40 40.5 31.0457 40.5 20C40.5 8.9543 31.5457 0 20.5 0C9.4543 0 0.5 8.9543 0.5 20C0.5 31.0457 9.4543 40 20.5 40ZM10.1105 28.6112L8 24.9621H23.4708L26.3801 30.0009H12.3652C11.3797 30.0009 10.5265 29.436 10.1105 28.6112ZM33 24.9881C33 24.4823 32.8511 24.0144 32.5958 23.6197L24.383 9.34241C23.96 8.54358 23.1186 8 22.152 8H17.8128L30.4995 29.9796L32.4989 26.5172C32.8936 25.8531 33.0023 25.56 33.0023 24.9881H33ZM15.7378 11.5616L21.4075 21.3816H10.068L15.7378 11.5616Z" fill="white"></path></svg> 