<?xml version="1.0" encoding="UTF-8"?> <svg xmlns="http://www.w3.org/2000/svg" width="28" height="28" viewBox="0 0 28 28" fill="none"><path d="M24.3085 4.17942C24.3085 4.17942 26.5643 3.29977 26.3756 5.43591C26.3134 6.31556 25.7496 9.39463 25.3107 12.7245L23.8069 22.5894C23.8069 22.5894 23.6814 24.0346 22.5533 24.286C21.4257 24.5369 19.7337 23.4064 19.4202 23.155C19.1694 22.9663 14.7206 20.1386 13.1541 18.7567C12.7151 18.3793 12.2134 17.6256 13.2168 16.746L19.7959 10.4624C20.5478 9.70875 21.2997 7.94945 18.1666 10.0856L9.39332 16.0544C9.39332 16.0544 8.39057 16.6833 6.51108 16.1177L2.43738 14.8607C2.43738 14.8607 0.933555 13.9183 3.50284 12.976C9.76957 10.0229 17.4774 7.00709 24.3074 4.17942H24.3085Z" fill="#D89CF9"></path></svg> 