<?xml version="1.0" encoding="UTF-8"?> <svg xmlns="http://www.w3.org/2000/svg" width="28" height="28" viewBox="0 0 28 28" fill="none"><path fill-rule="evenodd" clip-rule="evenodd" d="M25.8274 7.96326C25.9961 7.40847 25.8274 7 25.0196 7H22.3524C21.6736 7 21.3607 7.35258 21.191 7.74175C21.191 7.74175 19.8345 10.9892 17.9131 13.0986C17.2912 13.7103 17.0087 13.9044 16.6694 13.9044C16.4997 13.9044 16.2446 13.7103 16.2446 13.1545V7.96326C16.2446 7.2967 16.0577 7 15.4927 7H11.2983C10.8746 7 10.6195 7.30889 10.6195 7.60254C10.6195 8.23354 11.5808 8.37986 11.6793 10.156V14.0151C11.6793 14.8615 11.5239 15.015 11.1845 15.015C10.2802 15.015 8.08031 11.7523 6.77463 8.01914C6.52162 7.29264 6.26556 7 5.58377 7H2.91449C2.15241 7 2 7.35258 2 7.74175C2 8.43473 2.90432 11.8773 6.21171 16.4304C8.41664 19.5396 11.5208 21.2253 14.3486 21.2253C16.0445 21.2253 16.2538 20.8514 16.2538 20.2062V17.856C16.2538 17.1071 16.4143 16.9577 16.9518 16.9577C17.3481 16.9577 18.0258 17.1528 19.6089 18.6516C21.4176 20.4287 21.7153 21.2253 22.7334 21.2253H25.4007C26.1627 21.2253 26.5448 20.8514 26.3253 20.1117C26.0835 19.376 25.2198 18.3081 24.0747 17.041C23.4528 16.3196 22.52 15.5423 22.2365 15.1531C21.8413 14.6542 21.9541 14.4317 22.2365 13.9877C22.2365 13.9877 25.488 9.49045 25.8264 7.96326H25.8274Z" fill="#D89CF9"></path></svg> 