<?xml version="1.0" encoding="UTF-8"?> <svg xmlns="http://www.w3.org/2000/svg" width="28" height="28" viewBox="0 0 28 28" fill="none"><path d="M21.2736 6.9569C20.3421 6.01592 19.2325 5.26984 18.0095 4.76218C16.7866 4.25453 15.4749 3.99545 14.1508 4.00006C8.60291 4.00006 4.08129 8.52168 4.08129 14.0696C4.08129 15.8477 4.54869 17.5751 5.42253 19.0992L4 24.322L9.3345 22.9197C10.8078 23.7225 12.4641 24.1492 14.1508 24.1492C19.6987 24.1492 24.2203 19.6276 24.2203 14.0797C24.2203 11.3871 23.1737 8.85699 21.2736 6.9569V6.9569ZM14.1508 22.4422C12.647 22.4422 11.1736 22.0357 9.88319 21.2737L9.57836 21.0908L6.40814 21.924L7.2515 18.835L7.04828 18.5201C6.2128 17.1859 5.76916 15.6437 5.768 14.0696C5.768 9.45649 9.52755 5.69694 14.1406 5.69694C16.376 5.69694 18.4793 6.57078 20.0543 8.15589C20.8341 8.93215 21.4521 9.85547 21.8725 10.8723C22.2928 11.8892 22.5072 12.9794 22.5031 14.0797C22.5234 18.6928 18.7639 22.4422 14.1508 22.4422V22.4422ZM18.7435 16.183C18.4895 16.0611 17.2499 15.4514 17.0263 15.36C16.7926 15.2787 16.6301 15.2381 16.4573 15.4819C16.2846 15.736 15.807 16.305 15.6648 16.4675C15.5225 16.6403 15.3701 16.6606 15.1161 16.5285C14.862 16.4066 14.0492 16.1322 13.094 15.2787C12.3421 14.6081 11.8442 13.7851 11.6918 13.531C11.5496 13.277 11.6715 13.1449 11.8036 13.0128C11.9154 12.901 12.0576 12.7182 12.1796 12.5759C12.3015 12.4336 12.3523 12.3219 12.4336 12.1593C12.5149 11.9866 12.4742 11.8443 12.4133 11.7224C12.3523 11.6004 11.8442 10.3608 11.641 9.85277C11.4378 9.36504 11.2244 9.42601 11.072 9.41585H10.5843C10.4116 9.41585 10.1474 9.47681 9.91367 9.73083C9.69013 9.98486 9.03983 10.5945 9.03983 11.8342C9.03983 13.0738 9.94415 14.2728 10.0661 14.4354C10.188 14.6081 11.8442 17.1483 14.3642 18.2355C14.9637 18.4997 15.4311 18.6521 15.7969 18.7639C16.3964 18.957 16.945 18.9265 17.382 18.8655C17.8697 18.7944 18.8756 18.2559 19.0788 17.6665C19.2922 17.0772 19.2922 16.5793 19.2211 16.4675C19.15 16.3558 18.9976 16.305 18.7435 16.183V16.183Z" fill="#D89CF9"></path></svg> 