<?xml version="1.0" encoding="UTF-8"?> <svg xmlns="http://www.w3.org/2000/svg" width="41" height="40" viewBox="0 0 41 40" fill="none"><g clip-path="url(#clip0_114_10)"><path d="M37.6043 9.22428C31.6458 -0.000303268 19.4803 -2.74275 10.0459 2.99145C0.859772 8.72565 -2.11952 21.1913 3.83906 30.4159L4.33561 31.1638L2.34942 38.6432L9.79764 36.6487L10.5425 37.1473C13.77 38.8925 17.2459 39.8898 20.7217 39.8898C24.4458 39.8898 28.1699 38.8925 31.3975 36.898C40.5836 30.9145 43.3146 18.6982 37.6043 9.22428ZM32.3906 28.4214C31.3975 29.9173 30.1561 30.9145 28.4182 31.1638C27.4251 31.1638 26.1837 31.6624 21.2183 29.6679C16.9976 27.6734 13.5218 24.4324 11.039 20.6927C9.54937 18.9475 8.80454 16.7037 8.55627 14.4599C8.55627 12.4653 9.30109 10.7202 10.5425 9.47359C11.039 8.97496 11.5356 8.72565 12.0321 8.72565H13.2735C13.77 8.72565 14.2666 8.72565 14.5148 9.7229C15.0114 10.9695 16.2528 13.9612 16.2528 14.2105C16.501 14.4598 16.501 14.9585 16.2528 15.2078C16.501 15.7064 16.2528 16.205 16.0045 16.4544C15.7562 16.7037 15.5079 17.2023 15.2597 17.4516C14.7631 17.7009 14.5148 18.1995 14.7631 18.6982C15.7562 20.194 16.9976 21.6899 18.239 22.9365C19.7286 24.1831 21.2183 25.1803 22.9562 25.9282C23.4527 26.1776 23.9493 26.1776 24.1975 25.6789C24.4458 25.1803 25.6872 23.9337 26.1837 23.4351C26.6803 22.9365 26.9286 22.9365 27.4251 23.1858L31.3975 25.1803C31.894 25.4296 32.3906 25.6789 32.6389 25.9282C32.8871 26.6762 32.8871 27.6734 32.3906 28.4214Z" fill="white"></path></g><defs><clipPath id="clip0_114_10"><rect width="41" height="40" fill="white"></rect></clipPath></defs></svg> 