<?xml version="1.0" encoding="UTF-8"?> <svg xmlns="http://www.w3.org/2000/svg" width="41" height="40" viewBox="0 0 41 40" fill="none"><path d="M20.4167 0C9.41686 0 0.5 8.95417 0.5 20C0.5 31.0458 9.41686 40 20.4167 40C31.4165 40 40.3333 31.0458 40.3333 20C40.3333 8.95417 31.4165 0 20.4167 0ZM28.0763 22.5646C28.0763 22.5646 29.8377 24.3104 30.2713 25.1208C30.2837 25.1375 30.2899 25.1542 30.2941 25.1625C30.4704 25.4604 30.5119 25.6917 30.4248 25.8646C30.2796 26.1521 29.7816 26.2938 29.6115 26.3063H26.4995C26.2838 26.3063 25.8315 26.25 25.2838 25.8708C24.8626 25.575 24.4477 25.0896 24.0432 24.6167C23.4394 23.9125 22.9166 23.3042 22.3897 23.3042C22.3227 23.3041 22.2562 23.3146 22.1926 23.3354C21.7942 23.4646 21.2839 24.0354 21.2839 25.5562C21.2839 26.0312 20.9104 26.3042 20.647 26.3042H19.2217C18.7362 26.3042 16.2072 26.1333 13.9666 23.7604C11.2239 20.8542 8.75504 15.025 8.7343 14.9708C8.5787 14.5937 8.90027 14.3917 9.25089 14.3917H12.394C12.8131 14.3917 12.95 14.6479 13.0454 14.875C13.1575 15.1396 13.5682 16.1917 14.2425 17.375C15.3358 19.3042 16.006 20.0875 16.5433 20.0875C16.644 20.0863 16.743 20.0606 16.8317 20.0125C17.5329 19.6208 17.4022 17.1104 17.3711 16.5896C17.3711 16.4917 17.369 15.4667 17.0101 14.975C16.7528 14.6187 16.3151 14.4833 16.0495 14.4333C16.157 14.2844 16.2986 14.1636 16.4624 14.0812C16.9437 13.8396 17.8109 13.8042 18.6719 13.8042H19.1511C20.0847 13.8167 20.3254 13.8771 20.6636 13.9625C21.3482 14.1271 21.3627 14.5708 21.3025 16.0896C21.2839 16.5208 21.2652 17.0083 21.2652 17.5833C21.2652 17.7083 21.259 17.8417 21.259 17.9833C21.2382 18.7562 21.2133 19.6333 21.7569 19.9937C21.8278 20.0384 21.9097 20.0622 21.9934 20.0625C22.1822 20.0625 22.7507 20.0625 24.29 17.4104C24.7648 16.5568 25.1774 15.6697 25.5245 14.7562C25.5556 14.7021 25.6469 14.5354 25.7547 14.4708C25.8344 14.4301 25.9226 14.4093 26.012 14.4104H29.707C30.1094 14.4104 30.3854 14.4708 30.4372 14.6271C30.5285 14.875 30.4206 15.6312 28.7339 17.925L27.9809 18.9229C26.4518 20.9354 26.4518 21.0375 28.0763 22.5646Z" fill="white"></path></svg> 