<?xml version="1.0" encoding="UTF-8"?> <svg xmlns="http://www.w3.org/2000/svg" width="40" height="40" viewBox="0 0 40 40" fill="none"><path d="M19.9167 0C8.91367 0 0 8.95226 0 20C0 31.0477 8.91496 40 19.9167 40C30.9197 40 39.8333 31.0477 39.8333 20C39.8333 8.95226 30.9184 0 19.9167 0ZM29.699 13.7019L26.4301 29.1703C26.1885 30.2671 25.5383 30.5329 24.6311 30.0168L19.652 26.3316L17.2504 28.6542C16.9857 28.92 16.7608 29.1458 16.2469 29.1458L16.6002 24.0568L25.8274 15.6852C26.2296 15.3303 25.7388 15.129 25.2081 15.4839L13.8042 22.6929L8.88926 21.1523C7.82147 20.8142 7.79705 20.08 9.11412 19.5639L28.3164 12.1277C29.2081 11.8052 29.9868 12.3458 29.6977 13.7006L29.699 13.7019Z" fill="white"></path></svg> 