<svg width="41" height="40" viewBox="0 0 41 40" fill="none" xmlns="http://www.w3.org/2000/svg">
<path d="M23.4923 19.6521L18.8327 17.4688C18.426 17.2792 18.092 17.4917 18.092 17.9437V22.0563C18.092 22.5083 18.426 22.7208 18.8327 22.5312L23.4903 20.3479C23.899 20.1562 23.899 19.8438 23.4923 19.6521ZM20.1667 0C9.16686 0 0.25 8.95417 0.25 20C0.25 31.0458 9.16686 40 20.1667 40C31.1665 40 40.0833 31.0458 40.0833 20C40.0833 8.95417 31.1665 0 20.1667 0ZM20.1667 28.125C9.97182 28.125 9.7934 27.2021 9.7934 20C9.7934 12.7979 9.97182 11.875 20.1667 11.875C30.3615 11.875 30.5399 12.7979 30.5399 20C30.5399 27.2021 30.3615 28.125 20.1667 28.125Z" fill="white"/>
</svg>
