<?xml version="1.0" encoding="UTF-8"?> <svg xmlns="http://www.w3.org/2000/svg" width="28" height="28" viewBox="0 0 28 28" fill="none"><path d="M25.8295 7.04591C26.3868 9.21877 26.3868 13.7547 26.3868 13.7547C26.3868 13.7547 26.3868 18.2906 25.8295 20.4635C25.5198 21.6646 24.6138 22.6095 23.4664 22.929C21.3826 23.5094 14.1934 23.5094 14.1934 23.5094C14.1934 23.5094 7.00782 23.5094 4.92031 22.929C3.76804 22.6047 2.86329 21.6609 2.55724 20.4635C2 18.2906 2 13.7547 2 13.7547C2 13.7547 2 9.21877 2.55724 7.04591C2.86695 5.84486 3.77292 4.89987 4.92031 4.5804C7.00782 4 14.1934 4 14.1934 4C14.1934 4 21.3826 4 23.4664 4.5804C24.6187 4.90475 25.5235 5.84852 25.8295 7.04591V7.04591ZM11.7547 18.0224L19.0707 13.7547L11.7547 9.48702V18.0224Z" fill="#D89CF9"></path></svg> 