<svg width="11" height="16" viewBox="0 0 11 16" fill="none" xmlns="http://www.w3.org/2000/svg">
<path fill-rule="evenodd" clip-rule="evenodd" d="M8.59374 7.87366C6.20871 5.58484 3.87761 3.35059 1.60043 1.1729C1.48124 1.05301 1.41477 0.893886 1.41477 0.728428C1.41477 0.562969 1.48124 0.403841 1.60043 0.283959C1.92293 -0.0593134 2.43312 -0.0295498 2.6654 0.20459C5.02553 2.4686 7.49455 4.8348 10.0725 7.30418C10.2767 7.4649 10.3794 7.65539 10.3794 7.87366C10.3794 8.09291 10.2767 8.28836 10.0725 8.46099L2.31283 15.7094C2.16398 15.8404 1.9676 15.9107 1.76543 15.9053C1.56326 15.8999 1.37125 15.8193 1.23024 15.6806C0.859002 15.3245 1.0021 14.9732 1.17009 14.8066C3.64853 12.4991 6.12239 10.1881 8.59374 7.87366Z" fill="black"/>
</svg>
