<svg width="10" height="16" viewBox="0 0 10 16" fill="none" xmlns="http://www.w3.org/2000/svg">
<path fill-rule="evenodd" clip-rule="evenodd" d="M2.39991 7.87366C4.78494 5.58484 7.11604 3.35059 9.39322 1.1729C9.51241 1.05301 9.57889 0.893886 9.57889 0.728428C9.57889 0.562969 9.51241 0.403841 9.39322 0.283959C9.07072 -0.0593134 8.56053 -0.0295498 8.32825 0.20459C5.96812 2.4686 3.4991 4.8348 0.9212 7.30418C0.716918 7.4649 0.614258 7.65539 0.614258 7.87366C0.614258 8.09291 0.716918 8.28836 0.9212 8.46099L8.68082 15.7094C8.82967 15.8404 9.02606 15.9107 9.22823 15.9053C9.4304 15.8999 9.6224 15.8193 9.76342 15.6806C10.1347 15.3245 9.99155 14.9732 9.82356 14.8066C7.34512 12.4991 4.87126 10.1881 2.39991 7.87366Z" fill="black"/>
</svg>
